<svg xmlns="http://www.w3.org/2000/svg" width="75" height="75" fill="none"><rect width="75" height="75" fill="#0540B1" rx="15"/><path fill="#fff" d="M20.63 55.386c-2.408 0-4.556-.443-6.442-1.33-1.876-.886-3.364-2.107-4.466-3.664C8.619 48.835 8.045 47.052 8 45.04h7.16c.079 1.352.647 2.449 1.704 3.29 1.056.84 2.312 1.26 3.767 1.26 1.159 0 2.182-.255 3.068-.766a5.49 5.49 0 0 0 2.096-2.165c.512-.932.767-2 .767-3.204 0-1.228-.26-2.307-.784-3.24a5.542 5.542 0 0 0-2.13-2.18c-.91-.524-1.95-.79-3.12-.802-1.022 0-2.017.21-2.982.63-.955.421-1.7.995-2.233 1.722L8.75 38.41 10.403 20h21.341v6.034H16.49l-.904 8.744h.205c.613-.863 1.54-1.58 2.778-2.147 1.239-.569 2.625-.853 4.16-.853 2.101 0 3.976.495 5.624 1.483 1.648.989 2.95 2.347 3.904 4.074.954 1.716 1.426 3.693 1.414 5.932.012 2.352-.534 4.443-1.636 6.273-1.09 1.818-2.62 3.25-4.585 4.295-1.955 1.034-4.227 1.551-6.818 1.551Zm17.66-6.613V42.96L52.864 20h5.011v8.046h-2.966l-9.187 14.54v.272h20.71v5.915H38.29Zm16.755 6.136V47l.137-2.574V20h6.92v34.91h-7.056Z"/></svg>